<?xml version="1.0" encoding="UTF-8" standalone="no"?>
<!-- Created with Inkscape (http://www.inkscape.org/) -->

<svg
   width="1920"
   height="1080"
   viewBox="0 0 1920 1080"
   version="1.1"
   id="svg1"
   xml:space="preserve"
   inkscape:export-filename="palitasLogoBlack.svg"
   inkscape:export-xdpi="96"
   inkscape:export-ydpi="96"
   xmlns:inkscape="http://www.inkscape.org/namespaces/inkscape"
   xmlns:sodipodi="http://sodipodi.sourceforge.net/DTD/sodipodi-0.dtd"
   xmlns="http://www.w3.org/2000/svg"
   xmlns:svg="http://www.w3.org/2000/svg"><sodipodi:namedview
     id="namedview1"
     pagecolor="#ffffff"
     bordercolor="#000000"
     borderopacity="0.25"
     inkscape:showpageshadow="2"
     inkscape:pageopacity="0.0"
     inkscape:pagecheckerboard="0"
     inkscape:deskcolor="#d1d1d1"
     inkscape:document-units="px"
     showgrid="false"><inkscape:grid
       id="grid1"
       units="px"
       originx="0"
       originy="0"
       spacingx="1"
       spacingy="1"
       empcolor="#0099e5"
       empopacity="0.30196078"
       color="#0099e5"
       opacity="0.14901961"
       empspacing="5"
       dotted="false"
       gridanglex="30"
       gridanglez="30"
       visible="false" /></sodipodi:namedview><defs
     id="defs1" /><g
     inkscape:label="Layer 1"
     inkscape:groupmode="layer"
     id="layer1"
     transform="matrix(2.3263168,0,0,2.2190062,-1332.9406,-777.70554)"><g
       id="g10"
       transform="translate(662.4928,172.20244)">
	
	<path
   fill="#010101"
   d="m 202.4,492.7 c -0.2,1.1 -0.4,1.9 -0.6,2.7 -0.5,2.1 -1.4,3.9 -3,5.4 -6.5,6.2 -14.2,10.4 -23,12.1 -3.5,0.7 -7,0.4 -10.3,-1.3 -1.2,-0.6 -2.4,-1.3 -3.6,-1.9 -0.4,-0.2 -0.8,-0.4 -1.5,-0.7 0,1 0,1.7 0,2.5 0,1.2 -0.3,2.2 -1,3.2 -2,2.6 -4.5,4.6 -7.6,5.6 -2.1,0.7 -4.1,0.6 -6.1,-0.2 -1.2,-0.5 -2.5,-1.1 -3.6,-1.8 -2.6,-1.6 -5,-3.5 -7.2,-5.5 -1.2,-1 -2,-2.3 -2.7,-3.6 -0.4,-0.9 -0.9,-1.7 -1.3,-2.6 -0.6,-1.3 -1.6,-1.9 -3,-2.1 -1.6,-0.2 -3.1,-0.3 -4.8,-0.2 -6.3,0.4 -12.3,2 -18.3,3.8 -3.1,0.9 -6.2,1.7 -9.3,2.3 -6.2,1.2 -12.5,1.4 -18.9,0.8 -2.3,-0.2 -4.5,-1.1 -6.5,-2.3 -1,-0.6 -1.9,-1.1 -2.9,-1.6 -0.7,-0.4 -1.4,-0.4 -2.1,-0.1 -0.8,0.4 -1.6,0.8 -2.4,1.1 -0.9,0.4 -1.7,0.9 -2.6,1.2 -2.6,0.9 -4.7,0.3 -6.2,-2.1 -1,-1.6 -1.6,-3.3 -1.9,-5.1 -0.1,-0.9 -0.2,-1.9 -0.2,-2.9 0,-3 1.2,-5.5 3.5,-7.3 1.3,-1 2.7,-2 4.1,-2.9 1.5,-1 3.1,-2 4.6,-3 0.5,-0.3 0.9,-0.7 1.5,-1.2 -1,-0.3 -1.6,-0.5 -2.3,-0.7 -1.2,-0.3 -2.3,-0.6 -3.5,-0.9 -0.6,-0.2 -1.2,-0.4 -1.8,-0.6 -4.3,-1.8 -5.7,-4.9 -4.2,-9.3 0.4,-1.3 1,-2.5 1.6,-3.7 0.9,-1.6 1.8,-3.2 2.8,-4.8 2.2,-3.5 4.5,-7 6.3,-10.9 2.7,-0.1 5.4,-0.2 8.1,-0.2 2.2,0 4.3,0 6.5,0 0.5,0 1.1,0 1.7,-0.1 0.2,-1.4 0.1,-2.7 0.1,-3.9 0,-1.4 0,-2.7 0,-4.1 0,-1.3 0,-2.6 0,-3.8 0,-1.3 0,-2.6 0,-3.8 0,-1.4 0,-2.7 0,-4.1 0,-1.3 -0.2,-2.5 0.3,-3.9 0.8,0 1.6,0 2.4,0 7.3,0 14.6,0 21.8,0 4.7,0 9.4,-0.7 13.8,-2.4 6.7,-2.7 11.1,-7.6 13.3,-14.5 1.7,-5.5 2.1,-11.1 1.6,-16.8 -0.3,-3.4 -0.9,-6.8 -2.1,-10.1 -2.5,-6.4 -6.9,-10.8 -13.4,-13.2 -3.2,-1.2 -6.4,-1.9 -9.8,-2 -2.6,-0.1 -5.3,-0.2 -7.9,-0.2 -11.6,0 -23.2,0 -34.8,0 -0.9,0 -1.7,0 -2.7,0 -0.1,0.6 -0.2,1.2 -0.2,1.7 0,6.3 0,12.6 0,19 0,2.2 0.3,4.5 0.4,6.7 0.1,0.9 0,1.9 0,3 -0.6,0 -1.1,0.1 -1.6,0.1 -0.1,-0.3 -0.2,-0.4 -0.2,-0.5 0,-2.8 -0.7,-3.4 -3.2,-3.9 -1.3,-0.3 -2.5,-0.6 -3.7,-0.8 -2.3,-0.6 -4.4,-1.6 -5.9,-3.4 -1.3,-1.5 -2.6,-3 -3.7,-4.7 -3.1,-4.8 -6,-9.6 -9,-14.5 -0.8,-1.3 -1.4,-2.7 -2,-4.1 -0.5,-1 -0.7,-2.1 -0.7,-3.3 0,-2 1,-3.4 2.8,-4.1 1,-0.4 2.2,-0.5 3.3,-0.6 1.8,-0.1 3.5,0 5.3,0.1 1.5,0.1 2.9,-0.2 4.2,-0.9 0.9,-0.4 1.9,-0.8 2.8,-1.3 3.4,-1.8 6.7,-3.7 10.1,-5.6 2.7,-1.5 5.1,-3.4 7.3,-5.5 0.5,-0.4 0.9,-0.9 1.3,-1.4 1.8,-2 1.8,-2.6 0.4,-4.9 -0.5,-0.8 -1,-1.6 -1.5,-2.5 -1.1,-1.9 -1.5,-4 -1.3,-6.2 0.4,-3.7 1.3,-7.2 3,-10.5 1.3,-2.6 3.1,-4.7 5.5,-6.2 1,-0.6 2,-1.3 3.1,-1.8 2.9,-1.4 5.8,-2.7 8.7,-4 4.3,-1.9 8.8,-2.2 13.4,-1.5 4.3,0.7 8.6,1.7 12.8,3 4.9,1.6 9.9,3 14.9,4.6 4.1,1.3 8.4,2 12.7,2.2 4.7,0.2 9.4,0.4 14.1,0.6 5.5,0.2 11,-0.4 16.5,-0.7 3.8,-0.2 7.7,-0.6 11.5,-0.6 4.6,0 9.1,0.8 13.3,2.8 5.1,2.4 10.5,3.8 15.9,5.4 0.2,0.1 0.5,0.2 0.7,0.2 3.4,1 6.6,0.5 9.6,-1.4 4.7,-3 9.9,-4.8 15,-6.8 4.1,-1.6 8.3,-1.8 12.5,-0.9 4.2,0.8 8.4,1.3 12.6,1.1 1.7,-0.1 3.5,0 5.3,0.1 2.4,0 4.6,0.7 6.7,1.7 1.5,0.7 3,1.5 4.4,2.4 3,1.8 6.4,2.5 9.8,2.6 2.6,0.1 5.3,0 7.9,-0.3 1.8,-0.2 3.5,-0.6 5.1,-1.3 0.8,-0.3 1.6,-0.7 2.4,-1.1 4.7,-2.4 9.7,-3 14.9,-2.4 2.5,0.3 5,0.3 7.4,0.2 2.9,-0.2 5.7,-0.5 8.6,-1 3.6,-0.5 7.2,-0.1 10.7,0.8 2.9,0.7 5.7,1.6 8.4,2.9 0.2,0.1 0.4,0.2 0.7,0.3 2.7,1.4 5.3,1.4 7.9,-0.4 0.8,-0.6 1.8,-1 2.8,-1.4 2.1,-0.9 4.2,-0.8 6.3,0.2 1.1,0.6 2.3,1.2 3.3,1.9 2.5,1.7 5.2,2.7 8,3.7 1.6,0.6 3,0.3 4.2,-0.8 0.8,-0.7 1.6,-1.3 2.4,-1.9 0.7,-0.5 1.4,-1 2.2,-1.4 2,-0.9 3.9,-0.7 5.6,0.7 0.9,0.7 1.6,1.6 2.3,2.4 0.7,0.8 1.4,1.8 1.9,2.5 1,0.3 1.7,0 2.3,-0.3 0.8,-0.4 1.2,-1.1 1.1,-2 -0.2,-1.3 -0.4,-2.7 -0.5,-4 -0.1,-1.3 -0.3,-2.5 -0.3,-3.8 0,-1.4 0.7,-2.5 2.1,-3 1.2,-0.5 2.4,-0.2 3.3,0.7 0.7,0.7 1.3,1.4 1.8,2.2 1.3,2 3.1,3 5.5,3.2 3.8,0.3 7.6,0.7 11.3,1.8 1.1,0.3 2.3,0.7 3.4,1.1 1.8,0.7 3.4,1.8 4.7,3.3 0.5,0.6 1.1,1.2 1.6,1.8 0.9,1 2.1,1.4 3.5,1.2 0.2,0 0.5,-0.1 0.7,-0.1 4.7,-0.8 9.4,-1.9 13.8,-3.9 1.2,-0.6 2.5,-1.1 3.8,-1.5 2.4,-0.8 4.6,-0.3 6.5,1.3 0.8,0.7 1.5,1.4 2.3,2.1 0.9,0.9 1.9,1.3 3.2,1.5 2.6,0.4 5.1,0.3 7.5,-0.8 1.4,-0.6 2.9,-0.8 4.4,-0.8 1.8,0 3.5,0 5.3,0 2.9,0 5.7,0.8 8.1,2.5 2.3,1.7 4.9,2.7 7.6,3.3 3.5,0.8 6.9,2.2 9.7,4.5 2.6,2 5.3,2.4 8.3,1.1 1.1,-0.5 2.3,-0.8 3.5,-1 3.5,-0.7 5.8,1 6.5,3.8 0.5,2.2 1.8,3.7 3.3,5.1 1.8,1.7 3.8,3.2 5.9,4.6 3.8,2.4 7.9,3.8 12.4,4.1 1.7,0.1 3.3,0.3 5,0.3 2.9,0.1 5.7,-0.5 8.4,-1.6 3.6,-1.4 7.3,-2.9 10.9,-4.3 1,-0.4 2.1,-0.9 3.2,-1.1 3.7,-0.9 5.9,1.6 4.8,5.3 -0.1,0.4 -0.2,0.8 -0.4,1.1 -1.8,3.7 -3.7,7.2 -6.7,10.1 -1.3,1.3 -2.7,2.5 -3.6,4.1 0.2,0.9 0.9,1.3 1.5,1.9 0.9,0.8 1.8,1.6 2.7,2.4 2.5,2.5 2.8,4.9 1.2,8.1 -0.2,0.4 -0.4,0.9 -0.7,1.3 -0.8,1.2 -1,2.5 -0.9,3.9 0.1,2.1 0.9,3.9 2.8,5 1,0.6 2.1,1.2 3.1,1.8 1,0.6 2.1,1.2 3.1,1.8 4.2,2.7 5.3,6.6 4.2,11.3 -0.7,3.1 -2.5,5.7 -4.9,7.8 -2.2,1.9 -4.5,2.3 -7.1,0.8 -0.6,-0.3 -1.3,-0.7 -1.9,-1 -0.7,0.3 -0.6,0.9 -0.7,1.4 -0.2,0.8 -0.3,1.7 -0.6,2.6 -0.7,2.4 -2.4,3.7 -4.9,4 -0.7,0.1 -1.5,0.1 -2.1,0 -3.7,-0.8 -7.3,-0.3 -10.9,0.5 -2,0.5 -4,0.9 -6.1,1.4 -0.3,0.1 -0.6,0.1 -1,0.2 -0.5,-1.7 -0.6,-3.3 -0.9,-5 -0.9,-4.5 -2.6,-8.5 -6,-11.8 -2.6,-2.5 -5.8,-3.9 -9.2,-4.9 -3,-0.8 -6.1,-1.1 -9.3,-1.1 -6.6,0 -13.1,0 -19.7,0 -1.1,0 -2.2,-0.1 -3.3,-0.3 -2.9,-0.5 -4.6,-2.1 -5.1,-5 -0.3,-1.9 -0.4,-3.8 0.3,-5.7 0.7,-2 2,-3.2 4,-3.8 1.2,-0.4 2.5,-0.4 3.8,-0.4 13.1,0 26.2,0 39.4,0 0.9,0 1.7,0 2.8,0 0.3,-1.5 0.1,-2.9 0.1,-4.3 0,-1.5 0,-3 0,-4.6 0,-1.4 0,-2.9 0,-4.3 0,-1.4 0,-2.8 -0.1,-4.4 -1,0 -1.8,0 -2.6,0 -13,0 -25.9,0 -38.9,0 -3.8,0 -7.5,0.2 -11.2,1.2 -3.7,1.1 -7,2.7 -9.6,5.6 -2.2,2.3 -3.6,5.1 -4.5,8.1 -1.2,4.2 -1.6,8.5 -1.3,12.8 0.1,1.9 0.4,3.8 0.8,5.7 1.9,9 7.7,14.6 17,16.3 3.2,0.6 6.4,0.7 9.6,0.7 6.1,0.1 12.2,0 18.2,0 1,0 2.1,0.1 3.1,0.3 2.3,0.5 3.8,2 4.5,4.2 0.6,2 0.5,3.9 0,5.9 -0.6,2.2 -2,3.7 -4.2,4.2 -1.3,0.3 -2.7,0.5 -4,0.5 -5.9,0 -11.8,0 -17.8,0 -7.2,0 -14.4,0 -21.6,0 -0.8,0 -1.6,0 -2.3,0 -0.4,2.1 -0.4,15.2 0,17.4 1.6,0.1 3.3,0 4.9,0.1 1.8,0 3.5,0 5.3,0 1.7,0 3.4,0 5,0 1.6,0 3.4,0 5,0 1.8,0 3.5,0 5.3,0 1.7,0 3.4,0 5,0 1.7,0 3.4,0 5,0 1.8,0 3.5,-0.1 5.3,-0.1 1.7,0 3.3,-0.2 4.9,-0.1 0.1,0.2 0.1,0.3 0.1,0.4 -1.4,3.7 -2.8,7.5 -4.3,11.2 -0.2,0.5 -0.5,1 -0.8,1.5 -1.4,2.4 -3.5,3.6 -6.4,3.4 -0.4,0 -0.8,0 -1.3,0 -1.4,1 -2.4,2.4 -3.3,4 -0.8,1.3 -0.9,2.7 -0.4,4.1 0.5,1.4 1,2.7 1.4,4.1 0.3,1.1 0.6,2.2 0.7,3.3 0.1,2.6 -1.5,4.5 -4.1,4.6 -1.2,0.1 -2.4,0 -3.6,-0.1 -1.7,-0.2 -3.2,0.3 -4.5,1.2 -0.9,0.6 -1.9,1.2 -2.8,1.8 -3,2.1 -6.3,3.7 -9.9,4.7 -7,2 -14,4 -20.9,6.1 -4.9,1.4 -9.8,1.4 -14.7,0.4 -1.3,-0.3 -2.7,-0.3 -4.1,-0.3 -0.7,0 -1.2,0.3 -1.5,1 -0.3,0.7 -0.7,1.5 -1,2.2 -2,5.1 -4.8,5.6 -9.3,4.9 -0.9,-0.1 -1.7,-0.4 -2.5,-0.7 -4.1,-1.5 -8.3,-1.2 -12.5,-0.3 -4.7,1 -9.2,2.6 -13.3,5.2 -1.6,1 -3.3,1.9 -5,2.8 -3.7,1.9 -7.5,1.9 -11.3,0 -1.1,-0.5 -2.2,-1 -3.2,-1.6 -1.7,-0.9 -3.6,-1.3 -5.5,-1.3 -1.7,0 -3.4,0 -5,0 -5,0.1 -9.9,0.1 -14.9,-0.5 -1,-0.1 -2.1,-0.3 -3.1,-0.6 -2.2,-0.6 -4,-1.9 -5.3,-3.9 -0.5,-0.7 -0.9,-1.5 -1.4,-2.3 -0.7,-1.3 -1.8,-2.1 -3.3,-2.6 -2.8,-0.9 -5.7,-1.6 -8.7,-1.3 -4,0.4 -7.2,2 -9,5.9 -0.6,1.3 -1.2,2.6 -2,3.8 -2.3,3.6 -5.5,4.4 -9.3,2.3 -1.2,-0.7 -2.3,-1.5 -3.3,-2.3 -1.9,-1.5 -3.7,-3.1 -5.5,-4.7 -2.4,-2.1 -5,-4 -7.9,-5.4 -2.7,-1.3 -5.4,-2.8 -8.2,-4 -1.5,-0.7 -3.2,-1 -4.8,-1.4 -1.7,-0.4 -3.4,-0.2 -4.9,0.5 -1.6,0.6 -3.3,1.3 -4.8,2.1 -4.9,2.8 -10.2,4.5 -15.5,6.4 -1.3,0.5 -2.8,0.7 -4.2,1 -2.6,0.4 -5.1,-0.1 -7.3,-1.6 -1.2,-0.8 -2.3,-1.7 -3.4,-2.7 -2.5,-2.4 -5.3,-3 -8.6,-1.7 -2.4,0.9 -4.8,1.8 -7.2,2.6 -1.5,0.5 -3,1 -4.6,1.4 -1,0.2 -2,0.3 -3.1,0.3 -2,0.1 -3.7,-0.8 -5.1,-2.3 -0.7,-0.8 -1.2,-1.7 -1.8,-2.5 -0.3,-0.5 -0.6,-1.1 -0.9,-1.7 -1,-1.8 -1.3,-1.9 -3.3,-1.5 -1.6,0.3 -3.3,0.7 -4.9,0.9 -2.8,0.4 -5.4,-0.3 -7.7,-2 -1.6,-1.2 -3.1,-2.5 -4.7,-3.7 -0.1,-0.7 -0.8,-1.2 -1.8,-2 z m 274.1,-38.9 c 0,-0.8 0,-1.3 0,-1.9 0,-16 0,-32 -0.1,-48 0,-4.7 -0.8,-9.4 -2.4,-13.9 -1.7,-4.8 -4.4,-8.9 -8.4,-12.1 -3.9,-3.1 -8.4,-4.9 -13.2,-6 -4.5,-1 -9,-1.2 -13.6,-1.1 -3.9,0.1 -7.6,0.6 -11.4,1.6 -10.5,2.8 -17.4,9.4 -20.3,19.9 -1.2,4.3 -1.8,8.8 -1.8,13.3 0,15.2 0,30.4 0,45.6 0,0.8 0,1.6 0,2.3 1.9,0.4 15.2,0.4 17.4,0 0,-0.7 0.1,-1.5 0.1,-2.3 0,-4.5 0,-9 0,-13.4 0,-0.6 -0.2,-1.3 0.4,-1.8 11.7,0 23.4,0 35,0 0.1,0 0.1,0 0.2,0.1 0.1,0 0.1,0.1 0.3,0.3 0,0.7 0,1.5 0,2.3 0,4.5 0,9 0,13.4 0,0.5 0.1,1.1 0.2,1.6 6,0.1 11.6,0.1 17.6,0.1 z m -264.1,0 c 0,-0.7 0.1,-1.1 0.1,-1.6 0,-15.7 0,-31.3 0,-47 0,-4.7 -0.7,-9.2 -2,-13.7 -1.9,-6.1 -5.2,-11.1 -10.5,-14.7 -3.5,-2.4 -7.4,-3.8 -11.4,-4.7 -5.3,-1.2 -10.8,-1.3 -16.2,-1 -4.1,0.3 -8.1,1 -11.9,2.4 -5.2,1.9 -9.5,4.9 -12.7,9.4 -2,2.8 -3.4,5.8 -4.4,9 -1.4,4.7 -1.9,9.6 -1.9,14.4 0,15.1 0,30.2 0,45.3 0,0.6 0,1.3 0,1.9 0.3,0.1 0.6,0.3 0.8,0.3 5.4,0 10.7,0 16.1,0 0.2,0 0.4,-0.1 0.8,-0.3 0,-1.4 0,-2.8 0,-4.2 0,-1.4 0,-2.9 0,-4.3 0,-1.5 0,-3 0,-4.6 0,-1.4 -0.1,-2.9 0.1,-4.3 3.2,0 6.3,0 9.4,0 8.1,0 16.1,0 24.2,0 0.7,0 1.5,-0.3 2.1,0.5 0,5.1 0,10.2 0,15.3 0,0.6 0.1,1.2 0.2,1.9 5.7,0 11.3,0 17.2,0 z m 159.4,-0.2 c 0,-0.8 0,-1.7 0,-2.6 0,-13.3 0,-26.5 0,-39.8 0,-7 0,-13.9 0,-20.9 0,-0.6 0.1,-1.2 0.2,-1.9 1,0 1.7,0 2.5,0 7.4,0 14.9,0 22.3,0 0.6,0 1.3,0.2 1.8,-0.3 0,-5.7 0,-11.3 0,-17 -0.9,-0.5 -1.8,-0.3 -2.7,-0.3 -12.1,0 -24.1,0 -36.2,0 -9.9,0 -19.8,0 -29.7,0 -0.8,0 -1.6,-0.2 -2.3,0.3 0,0.2 -0.1,0.5 -0.1,0.7 0,5.4 0,10.7 0,16.1 0,0.1 0,0.2 0.1,0.2 0,0.1 0.1,0.1 0.3,0.3 1.6,0 3.4,0 5.1,0 1.8,0 3.5,0 5.3,0 1.8,0 3.5,0 5.3,0 1.8,0 3.5,0 5.3,0 1.7,0 3.5,-0.2 5.2,0.2 0.4,0.9 0.2,1.8 0.2,2.7 0,19 0,38.1 0,57.1 0,1.4 0,2.7 0,4.1 0,0.4 0.2,0.9 0.2,1.3 3.7,0.2 15.2,0.1 17.2,-0.2 z M 219.2,371.1 c 0,0.8 0,1.7 0,2.6 0,14.5 0,29.1 0,43.6 0,1.6 0.1,3.2 0.2,4.8 0.3,4.8 1.2,9.5 3,14 2.9,6.9 7.8,11.8 14.7,14.7 5,2.1 10.3,3 15.7,3 12.1,0.1 24.1,0 36.2,0 0.5,0 0.9,-0.1 1.3,-0.2 0.1,-0.4 0.2,-0.6 0.2,-0.8 0,-5.2 0,-10.4 0,-15.6 0,-0.3 -0.2,-0.6 -0.3,-0.9 -0.9,0 -1.7,0 -2.5,0 -10.7,0 -21.4,0 -32.1,0 -2,0 -4,-0.1 -6,-0.5 -6.6,-1.2 -10.8,-5 -12.2,-11.8 -0.4,-1.7 -0.5,-3.5 -0.5,-5.2 0,-15 0,-30.1 0,-45.1 0,-0.9 0,-1.7 0,-2.6 -0.4,-0.1 -0.8,-0.2 -1.1,-0.2 -5.3,0 -10.6,0 -15.8,0 -0.2,-0.1 -0.4,0.1 -0.8,0.2 z m 80.9,-0.2 c 0,1.1 0,2 0,2.9 0,20.5 0,41.1 0,61.6 0,5.6 0,11.2 0,16.8 0,0.5 0.1,1 0.2,1.7 2.1,0 4,0 5.9,0 1.9,0 3.8,0 5.8,0 1.9,0 3.8,0.2 5.8,-0.2 0,-1 0,-1.8 0,-2.7 0,-25.7 0,-51.3 0,-77 0,-0.6 0,-1.1 0,-1.7 0,-0.5 -0.1,-0.9 -0.2,-1.4 -5.8,0 -11.5,0 -17.5,0 z"
   id="path2" />
	<path
   fill="#030101"
   d="m 81.2,412.3 c 0,-7.8 0,-15.5 0,-23.1 0,-0.2 0.2,-0.4 0.3,-0.8 0.5,0 1.1,0 1.6,0 7.3,0 14.7,0 22,0 1.3,0 2.6,0.1 3.8,0.4 3.9,0.8 6.5,3.2 7.5,7.1 0.7,2.8 0.7,5.7 0.1,8.5 -1,4.8 -4.3,7.2 -8.8,7.8 -0.6,0.1 -1.3,0.1 -1.9,0.1 -7.8,0 -15.7,0 -23.5,0 -0.3,0.1 -0.6,0.1 -1.1,0 z"
   id="path3" />
	<path
   fill="#fdfdfd"
   d="m 476.5,453.8 c -5.9,0 -11.6,0 -17.4,0 -0.1,-0.6 -0.2,-1.1 -0.2,-1.6 0,-4.5 0,-9 0,-13.4 0,-0.8 0,-1.6 0,-2.3 -0.2,-0.2 -0.3,-0.2 -0.3,-0.3 -0.1,0 -0.1,-0.1 -0.2,-0.1 -11.7,0 -23.3,0 -35,0 -0.6,0.5 -0.4,1.1 -0.4,1.8 0,4.5 0,9 0,13.4 0,0.8 -0.1,1.6 -0.1,2.3 -2.3,0.4 -15.5,0.4 -17.4,0 0,-0.8 0,-1.6 0,-2.3 0,-15.2 0,-30.4 0,-45.6 0,-4.5 0.6,-8.9 1.8,-13.3 3,-10.5 9.8,-17.1 20.3,-19.9 3.7,-1 7.5,-1.4 11.4,-1.6 4.6,-0.1 9.1,0.1 13.6,1.1 4.8,1 9.3,2.8 13.2,6 4,3.2 6.7,7.3 8.4,12.1 1.6,4.5 2.4,9.1 2.4,13.9 0.1,16 0.1,32 0.1,48 -0.2,0.4 -0.2,1 -0.2,1.8 z m -17.8,-35.6 c 0.1,-0.4 0.2,-0.6 0.2,-0.8 0,-4 0.1,-8 0,-12 0,-2.4 -0.4,-4.8 -1.2,-7.1 -1.5,-4.3 -4.3,-7.2 -8.6,-8.7 -1.8,-0.7 -3.7,-1 -5.6,-1.1 -3.7,-0.3 -7.3,-0.1 -10.9,1.2 -3.6,1.3 -6.3,3.7 -7.9,7.2 -0.9,2.1 -1.5,4.4 -1.6,6.7 -0.1,4.5 -0.1,8.9 -0.2,13.4 0,0.4 0.1,0.8 0.2,1.2 0.5,0.1 0.8,0.1 1.2,0.1 10.5,0.4 32,0.3 34.4,-0.1 z"
   id="path4" />
	<path
   fill="#fdfdfd"
   d="m 212.4,453.8 c -5.9,0 -11.5,0 -17.4,0 -0.1,-0.7 -0.2,-1.3 -0.2,-1.9 0,-5.1 0,-10.2 0,-15.3 -0.6,-0.7 -1.4,-0.5 -2.1,-0.5 -8.1,0 -16.1,0 -24.2,0 -3.1,0 -6.2,0 -9.4,0 -0.3,1.5 -0.1,2.9 -0.1,4.3 0,1.5 0,3 0,4.6 0,1.4 0,2.9 0,4.3 0,1.4 0,2.9 0,4.2 -0.4,0.1 -0.6,0.3 -0.8,0.3 -5.4,0 -10.7,0 -16.1,0 -0.2,0 -0.4,-0.1 -0.8,-0.3 0,-0.6 0,-1.3 0,-1.9 0,-15.1 0,-30.2 0,-45.3 0,-4.9 0.5,-9.7 1.9,-14.4 1,-3.2 2.4,-6.3 4.4,-9 3.2,-4.5 7.6,-7.5 12.7,-9.4 3.9,-1.4 7.8,-2.2 11.9,-2.4 5.4,-0.3 10.9,-0.2 16.2,1 4.1,0.9 8,2.3 11.4,4.7 5.3,3.6 8.6,8.7 10.5,14.7 1.4,4.5 2,9 2,13.7 0,15.7 0,31.3 0,47 0.2,0.4 0.1,0.9 0.1,1.6 z m -17.7,-35.5 c 0.1,-0.2 0.2,-0.4 0.2,-0.7 0,-4.3 0,-8.6 0,-13 0,-1 -0.1,-2.1 -0.3,-3.1 -1.1,-6.1 -4.3,-10.5 -10.4,-12.2 -4.8,-1.4 -9.7,-1.4 -14.4,0 -4.9,1.4 -8.3,4.6 -9.8,9.6 -0.6,2.1 -0.9,4.2 -0.9,6.4 0,3.8 0,7.5 0,11.3 0,0.5 0.1,1.1 0.1,1.6 2,0.3 33.3,0.4 35.5,0.1 z"
   id="path5" />
	<path
   fill="#fafcfc"
   d="m 371.8,453.6 c -1.9,0.3 -13.4,0.4 -17.3,0.2 -0.1,-0.4 -0.2,-0.9 -0.2,-1.3 0,-1.4 0,-2.7 0,-4.1 0,-19 0,-38.1 0,-57.1 0,-0.9 0.2,-1.8 -0.2,-2.7 -1.7,-0.4 -3.4,-0.1 -5.2,-0.2 -1.8,0 -3.5,0 -5.3,0 -1.8,0 -3.5,0 -5.3,0 -1.8,0 -3.5,0 -5.3,0 -1.7,0 -3.5,0 -5.1,0 -0.2,-0.2 -0.3,-0.3 -0.3,-0.3 0,-0.1 -0.1,-0.1 -0.1,-0.2 0,-5.4 0,-10.7 0,-16.1 0,-0.2 0.1,-0.5 0.1,-0.7 0.7,-0.5 1.6,-0.3 2.3,-0.3 9.9,0 19.8,0 29.7,0 12.1,0 24.1,0 36.2,0 0.9,0 1.8,-0.2 2.7,0.3 0,5.6 0,11.3 0,17 -0.5,0.6 -1.2,0.3 -1.8,0.3 -7.4,0 -14.9,0 -22.3,0 -0.8,0 -1.6,0 -2.5,0 -0.1,0.7 -0.2,1.3 -0.2,1.9 0,7 0,13.9 0,20.9 0,13.3 0,26.5 0,39.8 0.1,0.9 0.1,1.7 0.1,2.6 z"
   id="path6" />
	<path
   fill="#fcfcfc"
   d="m 219.2,371.1 c 0.4,-0.1 0.6,-0.3 0.8,-0.3 5.3,0 10.6,0 15.8,0 0.3,0 0.6,0.1 1.1,0.2 0,0.9 0,1.8 0,2.6 0,15 0,30.1 0,45.1 0,1.7 0.1,3.5 0.5,5.2 1.4,6.9 5.6,10.7 12.2,11.8 2,0.3 4,0.5 6,0.5 10.7,0 21.4,0 32.1,0 0.8,0 1.6,0 2.5,0 0.1,0.4 0.3,0.7 0.3,0.9 0,5.2 0,10.4 0,15.6 0,0.2 -0.1,0.5 -0.2,0.8 -0.4,0.1 -0.9,0.2 -1.3,0.2 -12.1,0 -24.1,0.1 -36.2,0 -5.4,0 -10.7,-0.9 -15.7,-3 -6.9,-2.9 -11.8,-7.7 -14.7,-14.7 -1.8,-4.5 -2.7,-9.2 -3,-14 -0.1,-1.6 -0.2,-3.2 -0.2,-4.8 0,-14.5 0,-29.1 0,-43.6 0,-0.8 0,-1.6 0,-2.5 z"
   id="path7" />
	<path
   fill="#fafbfb"
   d="m 300.1,370.9 c 6,0 11.6,0 17.4,0 0.1,0.5 0.2,0.9 0.2,1.4 0,0.6 0,1.1 0,1.7 0,25.7 0,51.3 0,77 0,0.9 0,1.7 0,2.7 -2,0.4 -3.9,0.2 -5.8,0.2 -1.9,0 -3.8,0 -5.8,0 -1.9,0 -3.8,0 -5.9,0 -0.1,-0.7 -0.2,-1.2 -0.2,-1.7 0,-5.6 0,-11.2 0,-16.8 0,-20.5 0,-41.1 0,-61.6 0.1,-0.9 0.1,-1.8 0.1,-2.9 z"
   id="path8" />
	<path
   fill="#030303"
   d="m 458.7,418.2 c -2.4,0.3 -23.9,0.5 -34.4,0.2 -0.4,0 -0.8,-0.1 -1.2,-0.1 -0.1,-0.5 -0.2,-0.8 -0.2,-1.2 0,-4.5 0.1,-9 0.2,-13.4 0.1,-2.3 0.7,-4.6 1.6,-6.7 1.6,-3.6 4.3,-5.9 7.9,-7.2 3.5,-1.3 7.2,-1.6 10.9,-1.2 1.9,0.2 3.8,0.5 5.6,1.1 4.3,1.5 7.1,4.4 8.6,8.7 0.8,2.3 1.1,4.7 1.2,7.1 0.1,4 0,8 0,12 0,0.1 -0.1,0.4 -0.2,0.7 z"
   id="path9" />
	<path
   fill="#030303"
   d="m 194.7,418.3 c -2.2,0.3 -33.5,0.3 -35.5,0 0,-0.5 -0.1,-1 -0.1,-1.6 0,-3.8 0,-7.5 0,-11.3 0,-2.2 0.3,-4.3 0.9,-6.4 1.4,-5.1 4.8,-8.2 9.8,-9.6 4.8,-1.4 9.7,-1.4 14.4,0 6.1,1.8 9.3,6.1 10.4,12.2 0.2,1 0.3,2.1 0.3,3.1 0,4.3 0,8.6 0,13 0,0.1 -0.1,0.4 -0.2,0.6 z"
   id="path10" />
</g></g></svg>
